<?xml version="1.0" encoding="UTF-8" standalone="no"?>
<svg
   xmlns:dc="http://purl.org/dc/elements/1.1/"
   xmlns:cc="http://creativecommons.org/ns#"
   xmlns:rdf="http://www.w3.org/1999/02/22-rdf-syntax-ns#"
   xmlns:svg="http://www.w3.org/2000/svg"
   xmlns="http://www.w3.org/2000/svg"
   xmlns:xlink="http://www.w3.org/1999/xlink"
   xmlns:sodipodi="http://sodipodi.sourceforge.net/DTD/sodipodi-0.dtd"
   xmlns:inkscape="http://www.inkscape.org/namespaces/inkscape"
   id="Layer_1"
   data-name="Layer 1"
   viewBox="0 0 450 302.73"
   version="1.1"
   sodipodi:docname="ieat.svg"
   inkscape:version="1.0.1 (1.0.1+r73)">
  <metadata
     id="metadata122">
    <rdf:RDF>
      <cc:Work
         rdf:about="">
        <dc:format>image/svg+xml</dc:format>
        <dc:type
           rdf:resource="http://purl.org/dc/dcmitype/StillImage" />
      </cc:Work>
    </rdf:RDF>
  </metadata>
  <sodipodi:namedview
     pagecolor="#ffffff"
     bordercolor="#666666"
     borderopacity="1"
     objecttolerance="10"
     gridtolerance="10"
     guidetolerance="10"
     inkscape:pageopacity="0"
     inkscape:pageshadow="2"
     inkscape:window-width="1440"
     inkscape:window-height="863"
     id="namedview120"
     showgrid="false"
     inkscape:zoom="2.150431"
     inkscape:cx="225"
     inkscape:cy="151.36501"
     inkscape:window-x="203"
     inkscape:window-y="0"
     inkscape:window-maximized="1"
     inkscape:current-layer="Layer_1" />
  <defs
     id="defs45">
    <style
       id="style2">.cls-1{fill:url(#linear-gradient);}.cls-2{fill:url(#linear-gradient-2);}.cls-3{fill:#707070;}.cls-4{fill:url(#linear-gradient-3);}.cls-5{fill:url(#linear-gradient-4);}.cls-6{fill:url(#linear-gradient-5);}.cls-7{fill:url(#linear-gradient-6);}.cls-8{fill:url(#linear-gradient-7);}.cls-9{fill:url(#linear-gradient-8);}.cls-10{fill:url(#linear-gradient-9);}.cls-11{fill:url(#linear-gradient-10);}.cls-12{fill:url(#linear-gradient-11);}.cls-13{fill:url(#linear-gradient-12);}.cls-14{fill:url(#linear-gradient-13);}.cls-15{fill:url(#linear-gradient-14);}.cls-16{fill:url(#linear-gradient-15);}.cls-17{fill:url(#linear-gradient-16);}.cls-18{fill:url(#linear-gradient-17);}.cls-19{fill:url(#linear-gradient-18);}.cls-20{fill:url(#linear-gradient-19);}.cls-21{fill:url(#linear-gradient-20);}.cls-22{fill:url(#linear-gradient-21);}.cls-23{fill:url(#linear-gradient-22);}.cls-24{fill:url(#linear-gradient-23);}.cls-25{fill:url(#linear-gradient-24);}.cls-26{fill:url(#linear-gradient-25);}.cls-27{fill:url(#linear-gradient-26);}.cls-28{fill:url(#linear-gradient-27);}.cls-29{fill:url(#linear-gradient-28);}.cls-30{fill:url(#linear-gradient-29);}.cls-31{fill:url(#linear-gradient-30);}.cls-32{fill:url(#linear-gradient-31);}.cls-33{fill:url(#linear-gradient-32);}.cls-34{fill:url(#linear-gradient-33);}.cls-35{font-size:9.61px;fill:#d03114;font-family:Arial-Black, Arial Black;font-weight:800;letter-spacing:0.05em;}</style>
    <linearGradient
       id="linear-gradient"
       x1="121.75"
       y1="162.89"
       x2="121.75"
       y2="200.45"
       gradientUnits="userSpaceOnUse">
      <stop
         offset="0.24"
         stop-color="#d03114"
         id="stop4" />
      <stop
         offset="0.87"
         stop-color="#a50610"
         id="stop6" />
    </linearGradient>
    <linearGradient
       id="linear-gradient-2"
       x1="314.52"
       y1="102.36"
       x2="314.52"
       y2="176.12"
       xlink:href="#linear-gradient" />
    <linearGradient
       id="linear-gradient-3"
       x1="208.62"
       y1="102.36"
       x2="208.62"
       y2="176.12"
       xlink:href="#linear-gradient" />
    <linearGradient
       id="linear-gradient-4"
       x1="120.53"
       y1="120.65"
       x2="120.53"
       y2="159.78"
       xlink:href="#linear-gradient" />
    <linearGradient
       id="linear-gradient-5"
       x1="139.11"
       y1="184.83"
       x2="139.11"
       y2="193.75"
       gradientUnits="userSpaceOnUse">
      <stop
         offset="0.24"
         stop-color="#c93917"
         id="stop12" />
      <stop
         offset="0.87"
         stop-color="#a50010"
         id="stop14" />
    </linearGradient>
    <linearGradient
       id="linear-gradient-6"
       x1="146.76"
       y1="187.46"
       x2="146.76"
       y2="193.97"
       xlink:href="#linear-gradient-5" />
    <linearGradient
       id="linear-gradient-7"
       x1="152.43"
       y1="189.69"
       x2="152.43"
       y2="191.48"
       xlink:href="#linear-gradient-5" />
    <linearGradient
       id="linear-gradient-8"
       x1="158.12"
       y1="187.46"
       x2="158.12"
       y2="193.97"
       xlink:href="#linear-gradient-5" />
    <linearGradient
       id="linear-gradient-9"
       x1="166.08"
       y1="187.55"
       x2="166.08"
       y2="193.75"
       xlink:href="#linear-gradient-5" />
    <linearGradient
       id="linear-gradient-10"
       x1="174.22"
       y1="187.51"
       x2="174.22"
       y2="196.8"
       xlink:href="#linear-gradient-5" />
    <linearGradient
       id="linear-gradient-11"
       x1="180.42"
       y1="184.14"
       x2="180.42"
       y2="193.75"
       xlink:href="#linear-gradient-5" />
    <linearGradient
       id="linear-gradient-12"
       x1="186.32"
       y1="187.55"
       x2="186.32"
       y2="193.75"
       xlink:href="#linear-gradient-5" />
    <linearGradient
       id="linear-gradient-13"
       x1="194.29"
       y1="187.46"
       x2="194.29"
       y2="193.97"
       xlink:href="#linear-gradient-5" />
    <linearGradient
       id="linear-gradient-14"
       x1="202.15"
       y1="187.46"
       x2="202.15"
       y2="193.97"
       xlink:href="#linear-gradient-5" />
    <linearGradient
       id="linear-gradient-15"
       x1="209.17"
       y1="187.55"
       x2="209.17"
       y2="193.75"
       xlink:href="#linear-gradient-5" />
    <linearGradient
       id="linear-gradient-16"
       x1="215.75"
       y1="187.46"
       x2="215.75"
       y2="193.97"
       xlink:href="#linear-gradient-5" />
    <linearGradient
       id="linear-gradient-17"
       x1="223.81"
       y1="183.93"
       x2="223.81"
       y2="193.94"
       xlink:href="#linear-gradient-5" />
    <linearGradient
       id="linear-gradient-18"
       x1="234.74"
       y1="183.8"
       x2="234.74"
       y2="193.75"
       xlink:href="#linear-gradient-5" />
    <linearGradient
       id="linear-gradient-19"
       x1="241.44"
       y1="187.46"
       x2="241.44"
       y2="193.97"
       xlink:href="#linear-gradient-5" />
    <linearGradient
       id="linear-gradient-20"
       x1="248.78"
       y1="187.55"
       x2="248.78"
       y2="193.75"
       xlink:href="#linear-gradient-5" />
    <linearGradient
       id="linear-gradient-21"
       x1="259.41"
       y1="184.58"
       x2="259.41"
       y2="194"
       xlink:href="#linear-gradient-5" />
    <linearGradient
       id="linear-gradient-22"
       x1="269.35"
       y1="187.57"
       x2="269.35"
       y2="193.75"
       xlink:href="#linear-gradient-5" />
    <linearGradient
       id="linear-gradient-23"
       x1="279.52"
       y1="187.49"
       x2="279.52"
       y2="193.94"
       xlink:href="#linear-gradient-5" />
    <linearGradient
       id="linear-gradient-24"
       x1="286.98"
       y1="187.55"
       x2="286.98"
       y2="193.75"
       xlink:href="#linear-gradient-5" />
    <linearGradient
       id="linear-gradient-25"
       x1="292.16"
       y1="185.86"
       x2="292.16"
       y2="193.75"
       xlink:href="#linear-gradient-5" />
    <linearGradient
       id="linear-gradient-26"
       x1="302.04"
       y1="184.83"
       x2="302.04"
       y2="193.75"
       xlink:href="#linear-gradient-5" />
    <linearGradient
       id="linear-gradient-27"
       x1="309.29"
       y1="187.46"
       x2="309.29"
       y2="193.97"
       xlink:href="#linear-gradient-5" />
    <linearGradient
       id="linear-gradient-28"
       x1="317.79"
       y1="187.46"
       x2="317.79"
       y2="193.97"
       xlink:href="#linear-gradient-5" />
    <linearGradient
       id="linear-gradient-29"
       x1="326.18"
       y1="183.93"
       x2="326.18"
       y2="193.94"
       xlink:href="#linear-gradient-5" />
    <linearGradient
       id="linear-gradient-30"
       x1="332.41"
       y1="184.14"
       x2="332.41"
       y2="193.75"
       xlink:href="#linear-gradient-5" />
    <linearGradient
       id="linear-gradient-31"
       x1="338.21"
       y1="187.46"
       x2="338.21"
       y2="193.97"
       xlink:href="#linear-gradient-5" />
    <linearGradient
       id="linear-gradient-32"
       x1="345.22"
       y1="187.46"
       x2="345.22"
       y2="193.97"
       xlink:href="#linear-gradient-5" />
    <linearGradient
       id="linear-gradient-33"
       x1="350.38"
       y1="191.23"
       x2="350.38"
       y2="194"
       xlink:href="#linear-gradient-5" />
    <linearGradient
       inkscape:collect="always"
       xlink:href="#linear-gradient"
       id="linearGradient1025"
       gradientUnits="userSpaceOnUse"
       x1="121.75"
       y1="162.89"
       x2="121.75"
       y2="200.45" />
    <linearGradient
       inkscape:collect="always"
       xlink:href="#linear-gradient-5"
       id="linearGradient1027"
       gradientUnits="userSpaceOnUse"
       x1="139.11"
       y1="184.83"
       x2="139.11"
       y2="193.75" />
    <linearGradient
       inkscape:collect="always"
       xlink:href="#linear-gradient-5"
       id="linearGradient1071"
       x1="268.54999"
       y1="156.83501"
       x2="292"
       y2="156.83501"
       gradientUnits="userSpaceOnUse" />
    <linearGradient
       inkscape:collect="always"
       xlink:href="#linear-gradient-5"
       id="linearGradient1079"
       x1="210.42999"
       y1="164.38499"
       x2="234.23"
       y2="164.38499"
       gradientUnits="userSpaceOnUse" />
  </defs>
  <path
     class="cls-1"
     d="m 120.93,163.55 a 33.55,33.55 0 0 1 -6.21,-1.53 v 36 h 14.07 v -34.55 a 22.68,22.68 0 0 1 -4.08,0.36 25.91,25.91 0 0 1 -3.78,-0.28 z"
     id="path47"
     style="fill:url(#linearGradient1025)" />
  <path
     class="cls-2"
     d="m 278.06,104.46 c 1.64,5.11 3.25,10.21 4.69,14.81 h 29.18 v 56.17 h 15.89 V 119.27 H 351 v -14.81 z"
     id="path49"
     style="fill:url(#linear-gradient-2)" />
  <path
     class="cls-3"
     d="m 234.23,154 v 0 l -16.92,-0.65 c -3.83,12.1 -6.88,22.07 -6.88,22.07 h 17.32 c 0,0 2.88,-9.74 6.48,-21.42 z"
     id="path51"
     style="fill-opacity:1.0;fill:url(#linearGradient1079)" />
  <path
     class="cls-3"
     d="m 280.32,138.29 c 0,0.22 0,0.44 0,0.68 0,0.24 0,0.46 0,0.69 a 19.37,19.37 0 0 1 -0.35,4 c -0.09,0.49 -0.2,0.95 -0.33,1.41 -0.13,0.46 -0.28,0.93 -0.44,1.38 -0.16,0.45 -0.35,0.89 -0.54,1.32 a 20.37,20.37 0 0 1 -1,1.84 c -0.25,0.39 -0.51,0.77 -0.79,1.13 a 13.63,13.63 0 0 1 -2.28,2.33 c -0.17,0.13 -0.33,0.26 -0.5,0.37 l -0.51,0.35 -0.46,0.27 a 12.2,12.2 0 0 1 -1.15,0.56 l -0.39,0.14 -0.32,0.11 a 4.11,4.11 0 0 1 -0.57,0.17 9.31,9.31 0 0 1 -1.28,0.24 4.23,4.23 0 0 1 -0.5,0 h -0.36 c 3.41,11.06 6.09,20.1 6.09,20.1 H 292 c 0,0 -6,-19.53 -11.68,-37.09 z"
     id="path53"
     style="fill-opacity:1.0;fill:url(#linearGradient1071)" />
  <path
     class="cls-4"
     d="m 275.46,139.76 c 0,-5.2 -3.48,-9.29 -7.51,-9 l -26.63,1 v 0 c 0.37,-1.1 0.73,-2.16 1.07,-3.2 l 0.62,-1.81 c 0.18,-0.5 0.36,-1 0.55,-1.4 1.55,-3.61 3.5,-4.58 7.67,-4.58 3.93,0 5.9,0.87 7.41,4 l 9.12,-0.34 h 0.59 0.69 a 9.88,9.88 0 0 1 5.07,1.87 c 0.22,0.15 0.42,0.31 0.63,0.48 l 0.48,0.41 c 0.17,0.15 0.36,0.32 0.52,0.49 0.34,0.35 0.67,0.71 1,1.1 0.33,0.39 0.6,0.79 0.88,1.22 v 0 c -1.92,-5.77 -3.69,-10.86 -5,-14.28 -3.64,-9.42 -8.61,-11.26 -16.44,-11.26 h -9.8 c -7.82,0 -12.8,1.84 -16.44,11.26 -1,2.61 -2.28,6.19 -3.69,10.32 v 0 l -1.08,3.2 c -0.35,1 -0.71,2.1 -1.07,3.2 l -69.56,2.66 v -6.6 c 0,-5.47 2.77,-9.23 8.45,-9.23 h 39.21 v -14.81 h -41.48 c -10.4,0 -17.94,6.88 -21,17.74 a 27.49,27.49 0 0 1 3,3.57 22.85,22.85 0 0 1 3.62,8.57 v 0.22 c 0.06,0.29 0.11,0.57 0.15,0.86 a 27.71,27.71 0 0 1 0.34,2.78 c 0,0.58 0.07,1.15 0.07,1.73 a 26,26 0 0 1 -0.17,2.81 c -0.05,0.53 -0.11,1.06 -0.2,1.57 -0.06,0.33 -0.12,0.66 -0.19,1 a 23.36,23.36 0 0 1 -3.64,8.69 26.85,26.85 0 0 1 -3.09,3.66 c 3.08,10.94 10.66,17.81 21.15,17.81 h 41 c 0,0 1.9,-6.23 4.59,-14.81 h -43.42 c -4.81,0 -8.45,-4 -8.45,-11.15 v -4.85 l 64.8,2.49 v 0 l 2.53,0.09 14.36,0.57 L 268,149 c 4.07,0.31 7.52,-3.94 7.46,-9.24 z m -6.94,3.3 c -1.37,0 -4.51,-1.42 -4.51,-3.18 0,-1.76 3.14,-3.16 4.51,-3.16 1.37,0 2.46,1.4 2.46,3.16 0,1.76 -1.09,3.18 -2.46,3.18 z"
     id="path55"
     style="fill:url(#linear-gradient-3)" />
  <path
     class="cls-5"
     d="m 141.62,136.17 v -0.14 a 16.33,16.33 0 0 0 -2.49,-6 c -3.55,-4.92 -8.13,-7.53 -13.74,-7.72 -7.06,-0.26 -13.4,2.7 -19.36,7.26 a 19.67,19.67 0 0 0 -6.12,7 6.63,6.63 0 0 0 -0.06,6.39 22.16,22.16 0 0 0 3.32,4.65 32.1,32.1 0 0 0 18.34,9.68 c 7.14,1 13.15,-1.27 17.64,-7.56 a 17.2,17.2 0 0 0 2.53,-6.13 18.53,18.53 0 0 0 0.38,-3.65 19.17,19.17 0 0 0 -0.44,-3.78 z m -4.23,9.15 a 13.74,13.74 0 0 1 -11.79,8.74 19.84,19.84 0 0 1 -9.41,-1.95 27.5,27.5 0 0 1 -8,-5.68 52.44,52.44 0 0 0 8.47,4 23.62,23.62 0 0 0 8.8,1.33 12.63,12.63 0 0 0 8,-3.28 16.7,16.7 0 0 0 1.66,-1.7 8,8 0 0 0 1.32,-1.93 15.65,15.65 0 0 0 1.5,-4.9 13.53,13.53 0 0 1 -0.55,5.37 z"
     id="path57"
     style="fill:url(#linear-gradient-4)" />
  <path
     class="cls-6"
     d="m 142.92,193.75 h -3 l -2.27,-3.43 v 3.43 h -2.38 v -8.92 H 139 a 3.6,3.6 0 0 1 1.33,0.22 2.51,2.51 0 0 1 1.5,1.47 2.9,2.9 0 0 1 0.19,1.07 2.63,2.63 0 0 1 -0.5,1.65 2.56,2.56 0 0 1 -1.49,0.85 z m -5.23,-4.93 h 0.45 a 1.76,1.76 0 0 0 1.08,-0.29 1.08,1.08 0 0 0 0,-1.63 1.76,1.76 0 0 0 -1.08,-0.28 h -0.45 z"
     id="path59"
     style="fill:url(#linearGradient1027)" />
  <path
     class="cls-7"
     d="m 145.56,191.08 a 1.2,1.2 0 0 0 1.34,1.38 1.19,1.19 0 0 0 1.07,-0.57 h 2.13 c -0.43,1.39 -1.5,2.08 -3.22,2.08 a 4.18,4.18 0 0 1 -1.44,-0.23 3.18,3.18 0 0 1 -1.12,-0.65 3.05,3.05 0 0 1 -0.72,-1 3.32,3.32 0 0 1 -0.26,-1.33 3.66,3.66 0 0 1 0.24,-1.36 2.9,2.9 0 0 1 1.78,-1.69 4.07,4.07 0 0 1 1.44,-0.23 4,4 0 0 1 1.42,0.23 2.77,2.77 0 0 1 1.73,1.74 4,4 0 0 1 0.23,1.42 v 0.23 z m 2.57,-1.25 a 1.24,1.24 0 0 0 -0.45,-0.72 1.26,1.26 0 0 0 -0.82,-0.27 1.29,1.29 0 0 0 -0.83,0.26 1.16,1.16 0 0 0 -0.41,0.73 z"
     id="path61"
     style="fill:url(#linear-gradient-6)" />
  <path
     class="cls-8"
     d="m 150.69,189.69 h 3.48 v 1.79 h -3.48 z"
     id="path63"
     style="fill:url(#linear-gradient-7)" />
  <path
     class="cls-9"
     d="m 156.91,191.08 a 1.33,1.33 0 0 0 2.42,0.81 h 2.12 c -0.43,1.39 -1.5,2.08 -3.21,2.08 a 4.2,4.2 0 0 1 -1.45,-0.23 3.27,3.27 0 0 1 -1.12,-0.65 3.05,3.05 0 0 1 -0.72,-1 3.32,3.32 0 0 1 -0.26,-1.33 3.66,3.66 0 0 1 0.25,-1.36 2.87,2.87 0 0 1 0.69,-1 3.09,3.09 0 0 1 1.08,-0.65 4.11,4.11 0 0 1 1.44,-0.23 4,4 0 0 1 1.42,0.23 2.85,2.85 0 0 1 1.07,0.66 3,3 0 0 1 0.67,1.08 4.19,4.19 0 0 1 0.23,1.42 v 0.23 z m 2.58,-1.25 a 1.35,1.35 0 0 0 -0.45,-0.72 1.29,1.29 0 0 0 -0.83,-0.27 1.31,1.31 0 0 0 -0.83,0.26 1.15,1.15 0 0 0 -0.4,0.73 z"
     id="path65"
     style="fill:url(#linear-gradient-8)" />
  <path
     class="cls-10"
     d="m 162.8,187.68 h 2.2 v 0.77 a 2.5,2.5 0 0 1 0.91,-0.72 3,3 0 0 1 1.08,-0.18 2.7,2.7 0 0 1 1.12,0.21 2.23,2.23 0 0 1 0.8,0.58 1.64,1.64 0 0 1 0.36,0.69 3.22,3.22 0 0 1 0.1,0.86 v 3.86 h -2.2 v -3.07 a 3.52,3.52 0 0 0 -0.06,-0.72 1,1 0 0 0 -0.24,-0.45 0.86,0.86 0 0 0 -0.33,-0.2 1.21,1.21 0 0 0 -0.38,-0.06 1.09,1.09 0 0 0 -0.86,0.33 1.32,1.32 0 0 0 -0.3,0.93 v 3.24 h -2.2 z"
     id="path67"
     style="fill:url(#linear-gradient-9)" />
  <path
     class="cls-11"
     d="m 177.83,187.68 v 5.65 a 6.36,6.36 0 0 1 -0.06,0.92 4,4 0 0 1 -0.17,0.7 2.09,2.09 0 0 1 -0.46,0.73 2.92,2.92 0 0 1 -0.74,0.59 4.64,4.64 0 0 1 -1,0.39 5.06,5.06 0 0 1 -1.2,0.14 4.65,4.65 0 0 1 -1.33,-0.18 3.57,3.57 0 0 1 -1.06,-0.49 2.75,2.75 0 0 1 -0.75,-0.73 2.58,2.58 0 0 1 -0.39,-0.92 h 2.48 a 1,1 0 0 0 1,0.61 1.41,1.41 0 0 0 1.06,-0.38 1.46,1.46 0 0 0 0.37,-1.06 v -0.58 a 3.73,3.73 0 0 1 -0.47,0.38 2.17,2.17 0 0 1 -0.45,0.24 2.53,2.53 0 0 1 -0.49,0.14 4.58,4.58 0 0 1 -0.55,0 3.25,3.25 0 0 1 -1.23,-0.23 3,3 0 0 1 -1,-0.62 2.81,2.81 0 0 1 -0.63,-1 3.31,3.31 0 0 1 -0.23,-1.25 3.44,3.44 0 0 1 0.24,-1.29 3.38,3.38 0 0 1 0.67,-1 2.92,2.92 0 0 1 1,-0.7 3.05,3.05 0 0 1 1.26,-0.26 2.43,2.43 0 0 1 1.85,0.81 v -0.64 z m -4.93,3 a 1.47,1.47 0 0 0 0.11,0.56 1.43,1.43 0 0 0 0.3,0.44 1.17,1.17 0 0 0 0.45,0.29 1.3,1.3 0 0 0 0.56,0.11 1.26,1.26 0 0 0 0.55,-0.11 1.17,1.17 0 0 0 0.45,-0.29 1.67,1.67 0 0 0 0.31,-0.44 1.41,1.41 0 0 0 0,-1.09 1.48,1.48 0 0 0 -0.31,-0.43 1.31,1.31 0 0 0 -0.46,-0.3 1.41,1.41 0 0 0 -0.54,-0.11 1.25,1.25 0 0 0 -0.54,0.12 1.51,1.51 0 0 0 -0.45,0.29 1.31,1.31 0 0 0 -0.31,0.43 1.24,1.24 0 0 0 -0.12,0.53 z"
     id="path69"
     style="fill:url(#linear-gradient-10)" />
  <path
     class="cls-12"
     d="m 179.19,185.35 a 1.23,1.23 0 0 1 0.09,-0.47 1.46,1.46 0 0 1 0.27,-0.38 1.16,1.16 0 0 1 0.39,-0.26 1.2,1.2 0 0 1 1,0 1.31,1.31 0 0 1 0.4,0.26 1.22,1.22 0 0 1 0.26,0.38 1.15,1.15 0 0 1 0,0.94 1.22,1.22 0 0 1 -0.26,0.38 1.31,1.31 0 0 1 -0.4,0.26 1.2,1.2 0 0 1 -1,0 1.16,1.16 0 0 1 -0.39,-0.26 1.46,1.46 0 0 1 -0.27,-0.38 1.23,1.23 0 0 1 -0.09,-0.47 z m 2.34,2.33 v 6.07 h -2.2 v -6.07 z"
     id="path71"
     style="fill:url(#linear-gradient-11)" />
  <path
     class="cls-13"
     d="m 183,187.68 h 2.2 v 0.77 a 2.42,2.42 0 0 1 0.91,-0.72 3,3 0 0 1 1.08,-0.18 2.7,2.7 0 0 1 1.12,0.21 2.19,2.19 0 0 1 0.79,0.58 1.79,1.79 0 0 1 0.37,0.69 3.69,3.69 0 0 1 0.1,0.86 v 3.86 h -2.2 v -3.07 a 2.87,2.87 0 0 0 -0.07,-0.72 0.88,0.88 0 0 0 -0.23,-0.45 0.94,0.94 0 0 0 -0.33,-0.2 1.23,1.23 0 0 0 -0.39,-0.06 1.07,1.07 0 0 0 -0.85,0.33 1.32,1.32 0 0 0 -0.3,0.93 v 3.24 H 183 Z"
     id="path73"
     style="fill:url(#linear-gradient-12)" />
  <path
     class="cls-14"
     d="m 193.09,191.08 c 0,0.92 0.44,1.38 1.33,1.38 a 1.19,1.19 0 0 0 1.08,-0.57 h 2.12 c -0.42,1.39 -1.5,2.08 -3.21,2.08 a 4.11,4.11 0 0 1 -1.44,-0.23 3.31,3.31 0 0 1 -1.13,-0.65 3.05,3.05 0 0 1 -0.72,-1 3.32,3.32 0 0 1 -0.25,-1.33 3.66,3.66 0 0 1 0.24,-1.36 2.87,2.87 0 0 1 0.69,-1 3,3 0 0 1 1.09,-0.65 4,4 0 0 1 1.43,-0.23 4,4 0 0 1 1.42,0.23 2.85,2.85 0 0 1 1.07,0.66 2.91,2.91 0 0 1 0.67,1.08 4.19,4.19 0 0 1 0.23,1.42 v 0.23 z m 2.57,-1.25 a 1.24,1.24 0 0 0 -0.45,-0.72 1.28,1.28 0 0 0 -0.82,-0.27 1.34,1.34 0 0 0 -0.84,0.26 1.15,1.15 0 0 0 -0.4,0.73 z"
     id="path75"
     style="fill:url(#linear-gradient-13)" />
  <path
     class="cls-15"
     d="m 201,191.08 c 0,0.92 0.44,1.38 1.33,1.38 a 1.19,1.19 0 0 0 1.08,-0.57 h 2.12 c -0.42,1.39 -1.5,2.08 -3.21,2.08 a 4.11,4.11 0 0 1 -1.44,-0.23 3.31,3.31 0 0 1 -1.13,-0.65 3.05,3.05 0 0 1 -0.72,-1 3.32,3.32 0 0 1 -0.25,-1.33 3.66,3.66 0 0 1 0.24,-1.36 2.87,2.87 0 0 1 0.69,-1 3,3 0 0 1 1.09,-0.65 4,4 0 0 1 1.43,-0.23 4,4 0 0 1 1.42,0.23 2.85,2.85 0 0 1 1.07,0.66 2.91,2.91 0 0 1 0.67,1.08 4.19,4.19 0 0 1 0.23,1.42 v 0.23 z m 2.57,-1.25 a 1.24,1.24 0 0 0 -0.45,-0.72 1.28,1.28 0 0 0 -0.82,-0.27 1.34,1.34 0 0 0 -0.84,0.26 1.15,1.15 0 0 0 -0.4,0.73 z"
     id="path77"
     style="fill:url(#linear-gradient-14)" />
  <path
     class="cls-16"
     d="M 206.83,187.68 H 209 v 1 a 2.43,2.43 0 0 1 0.86,-0.83 2.38,2.38 0 0 1 1.19,-0.29 h 0.18 0.24 v 2.05 a 2.15,2.15 0 0 0 -0.94,-0.21 1.45,1.45 0 0 0 -1.15,0.44 1.92,1.92 0 0 0 -0.38,1.3 v 2.6 h -2.2 z"
     id="path79"
     style="fill:url(#linear-gradient-15)" />
  <path
     class="cls-17"
     d="m 214.55,191.08 c 0,0.92 0.44,1.38 1.33,1.38 a 1.19,1.19 0 0 0 1.08,-0.57 h 2.12 c -0.43,1.39 -1.5,2.08 -3.21,2.08 a 4.2,4.2 0 0 1 -1.45,-0.23 3.27,3.27 0 0 1 -1.12,-0.65 3.05,3.05 0 0 1 -0.72,-1 3.32,3.32 0 0 1 -0.25,-1.33 3.66,3.66 0 0 1 0.24,-1.36 2.87,2.87 0 0 1 0.69,-1 3,3 0 0 1 1.09,-0.65 4,4 0 0 1 1.43,-0.23 4,4 0 0 1 1.42,0.23 2.85,2.85 0 0 1 1.07,0.66 3,3 0 0 1 0.67,1.08 4.19,4.19 0 0 1 0.23,1.42 v 0.23 z m 2.57,-1.25 a 1.35,1.35 0 0 0 -0.45,-0.72 1.29,1.29 0 0 0 -0.83,-0.27 1.31,1.31 0 0 0 -0.83,0.26 1.15,1.15 0 0 0 -0.4,0.73 z"
     id="path81"
     style="fill:url(#linear-gradient-16)" />
  <path
     class="cls-18"
     d="m 225.23,183.93 h 2.21 v 9.82 h -2.21 v -0.68 a 2.31,2.31 0 0 1 -1.9,0.87 3,3 0 0 1 -1.25,-0.25 3.09,3.09 0 0 1 -1.66,-1.72 3.54,3.54 0 0 1 -0.23,-1.27 3.41,3.41 0 0 1 0.22,-1.24 3,3 0 0 1 0.64,-1 2.8,2.8 0 0 1 1,-0.69 3.05,3.05 0 0 1 1.26,-0.26 2.59,2.59 0 0 1 1.93,0.79 z m -2.76,6.77 a 1.29,1.29 0 0 0 0.11,0.55 1.46,1.46 0 0 0 0.29,0.44 1.54,1.54 0 0 0 0.45,0.3 1.52,1.52 0 0 0 0.57,0.1 1.49,1.49 0 0 0 0.55,-0.1 1.54,1.54 0 0 0 0.45,-0.3 1.71,1.71 0 0 0 0.3,-0.44 1.18,1.18 0 0 0 0.12,-0.53 1.25,1.25 0 0 0 -0.12,-0.54 1.71,1.71 0 0 0 -0.3,-0.44 1.37,1.37 0 0 0 -0.45,-0.3 1.49,1.49 0 0 0 -0.55,-0.1 1.5,1.5 0 0 0 -0.56,0.1 1.23,1.23 0 0 0 -0.44,0.3 1.62,1.62 0 0 0 -0.31,0.43 1.17,1.17 0 0 0 -0.11,0.53 z"
     id="path83"
     style="fill:url(#linear-gradient-17)" />
  <path
     class="cls-19"
     d="m 235.46,189.47 v 4.28 h -2.2 v -4.28 h -0.79 v -1.79 h 0.79 v -0.91 a 3.93,3.93 0 0 1 0.15,-1.21 2.12,2.12 0 0 1 0.39,-0.7 2.37,2.37 0 0 1 0.62,-0.56 3.21,3.21 0 0 1 0.77,-0.37 2.63,2.63 0 0 1 0.81,-0.13 2.12,2.12 0 0 1 0.52,0.06 3,3 0 0 1 0.48,0.16 v 1.87 a 3.12,3.12 0 0 0 -0.41,-0.16 1.6,1.6 0 0 0 -0.39,0 1,1 0 0 0 -0.28,0 0.77,0.77 0 0 0 -0.26,0.17 0.78,0.78 0 0 0 -0.16,0.38 3.8,3.8 0 0 0 0,0.65 v 0.76 h 1.5 v 1.79 z"
     id="path85"
     style="fill:url(#linear-gradient-18)" />
  <path
     class="cls-20"
     d="m 237.7,190.66 a 2.83,2.83 0 0 1 0.28,-1.26 3.23,3.23 0 0 1 0.78,-1 3.89,3.89 0 0 1 1.18,-0.68 4.54,4.54 0 0 1 1.5,-0.24 4.42,4.42 0 0 1 1.48,0.24 3.54,3.54 0 0 1 1.19,0.67 3.06,3.06 0 0 1 0.79,1 3.18,3.18 0 0 1 0.27,1.32 3,3 0 0 1 -0.28,1.32 3.16,3.16 0 0 1 -0.78,1 3.49,3.49 0 0 1 -1.2,0.67 4.88,4.88 0 0 1 -1.51,0.23 4.69,4.69 0 0 1 -1.48,-0.23 3.57,3.57 0 0 1 -1.17,-0.68 3.11,3.11 0 0 1 -1.05,-2.4 z m 2.32,0 a 1.48,1.48 0 0 0 0.11,0.57 1.52,1.52 0 0 0 0.31,0.44 1.31,1.31 0 0 0 0.45,0.3 1.42,1.42 0 0 0 0.55,0.1 1.45,1.45 0 0 0 0.55,-0.1 1.54,1.54 0 0 0 0.45,-0.3 1.49,1.49 0 0 0 0.3,-0.44 1.3,1.3 0 0 0 0.12,-0.55 1.25,1.25 0 0 0 -0.12,-0.54 1.4,1.4 0 0 0 -0.75,-0.74 1.46,1.46 0 0 0 -0.55,-0.11 1.42,1.42 0 0 0 -0.55,0.11 1.19,1.19 0 0 0 -0.45,0.3 1.48,1.48 0 0 0 -0.31,0.43 1.4,1.4 0 0 0 -0.13,0.55 z"
     id="path87"
     style="fill:url(#linear-gradient-19)" />
  <path
     class="cls-21"
     d="m 246.45,187.68 h 2.19 v 1 a 2.54,2.54 0 0 1 0.87,-0.83 2.38,2.38 0 0 1 1.19,-0.29 h 0.18 0.24 v 2.05 a 2.17,2.17 0 0 0 -1,-0.21 1.43,1.43 0 0 0 -1.14,0.44 1.92,1.92 0 0 0 -0.39,1.3 v 2.6 h -2.19 z"
     id="path89"
     style="fill:url(#linear-gradient-20)" />
  <path
     class="cls-22"
     d="m 261.47,187.11 a 3.13,3.13 0 0 0 -0.78,-0.45 2.09,2.09 0 0 0 -0.75,-0.15 1.23,1.23 0 0 0 -0.75,0.21 0.66,0.66 0 0 0 -0.3,0.56 0.53,0.53 0 0 0 0.15,0.39 1.34,1.34 0 0 0 0.38,0.26 3.39,3.39 0 0 0 0.54,0.2 c 0.19,0.06 0.39,0.11 0.58,0.18 a 3.68,3.68 0 0 1 1.71,1 2.45,2.45 0 0 1 0.54,1.65 3.08,3.08 0 0 1 -0.24,1.24 2.62,2.62 0 0 1 -0.69,0.95 3.1,3.1 0 0 1 -1.12,0.62 4.86,4.86 0 0 1 -1.49,0.22 5.63,5.63 0 0 1 -3.22,-1 l 1,-1.87 a 4.16,4.16 0 0 0 1.06,0.69 2.55,2.55 0 0 0 1,0.22 1.2,1.2 0 0 0 0.86,-0.26 0.79,0.79 0 0 0 0.22,-0.94 0.7,0.7 0 0 0 -0.25,-0.27 2,2 0 0 0 -0.44,-0.23 l -0.66,-0.24 c -0.31,-0.09 -0.61,-0.2 -0.9,-0.31 a 2.69,2.69 0 0 1 -0.79,-0.46 2,2 0 0 1 -0.56,-0.71 2.51,2.51 0 0 1 -0.21,-1.1 3.09,3.09 0 0 1 0.22,-1.2 2.69,2.69 0 0 1 0.63,-0.92 2.93,2.93 0 0 1 1,-0.6 3.87,3.87 0 0 1 1.31,-0.21 5.94,5.94 0 0 1 1.42,0.18 6.94,6.94 0 0 1 1.42,0.54 z"
     id="path91"
     style="fill:url(#linear-gradient-21)" />
  <path
     class="cls-23"
     d="m 264.09,187.68 h 2.19 v 0.75 a 2.88,2.88 0 0 1 2,-0.84 2.35,2.35 0 0 1 2.11,1.13 2.37,2.37 0 0 1 2.11,-1.15 2.76,2.76 0 0 1 0.82,0.13 1.67,1.67 0 0 1 0.67,0.39 1.86,1.86 0 0 1 0.44,0.69 2.85,2.85 0 0 1 0.17,1 v 3.94 h -2.2 v -3 a 3.22,3.22 0 0 0 -0.07,-0.76 1.16,1.16 0 0 0 -0.19,-0.46 0.66,0.66 0 0 0 -0.3,-0.23 1,1 0 0 0 -0.36,-0.06 c -0.71,0 -1.06,0.5 -1.06,1.51 v 3 h -2.19 v -3 a 4.07,4.07 0 0 0 -0.06,-0.77 1.34,1.34 0 0 0 -0.18,-0.48 0.63,0.63 0 0 0 -0.3,-0.24 1.33,1.33 0 0 0 -0.42,-0.06 1.23,1.23 0 0 0 -0.39,0.06 0.59,0.59 0 0 0 -0.32,0.23 1.21,1.21 0 0 0 -0.22,0.47 3.31,3.31 0 0 0 -0.08,0.79 v 3 h -2.19 z"
     id="path93"
     style="fill:url(#linear-gradient-22)" />
  <path
     class="cls-24"
     d="m 280.94,187.68 h 2.2 v 6.07 h -2.2 v -0.68 a 2.33,2.33 0 0 1 -1.91,0.87 3.2,3.2 0 0 1 -1.25,-0.24 3.12,3.12 0 0 1 -1,-0.68 3.19,3.19 0 0 1 -0.66,-1 3.52,3.52 0 0 1 0,-2.53 3.15,3.15 0 0 1 0.64,-1 3,3 0 0 1 1,-0.69 3.05,3.05 0 0 1 1.26,-0.26 2.61,2.61 0 0 1 1.93,0.79 z m -2.77,3 a 1.46,1.46 0 0 0 0.11,0.55 1.4,1.4 0 0 0 0.75,0.74 1.47,1.47 0 0 0 0.56,0.1 1.45,1.45 0 0 0 0.55,-0.1 1.4,1.4 0 0 0 0.75,-0.74 1.18,1.18 0 0 0 0.12,-0.53 1.25,1.25 0 0 0 -0.12,-0.54 1.32,1.32 0 0 0 -0.3,-0.44 1.19,1.19 0 0 0 -0.45,-0.3 1.45,1.45 0 0 0 -0.55,-0.1 1.47,1.47 0 0 0 -0.56,0.1 1.19,1.19 0 0 0 -0.45,0.3 1.39,1.39 0 0 0 -0.3,0.43 1.32,1.32 0 0 0 -0.11,0.55 z"
     id="path95"
     style="fill:url(#linear-gradient-23)" />
  <path
     class="cls-25"
     d="m 284.65,187.68 h 2.19 v 1 a 2.54,2.54 0 0 1 0.87,-0.83 2.34,2.34 0 0 1 1.18,-0.29 h 0.19 0.24 v 2.05 a 2.17,2.17 0 0 0 -0.95,-0.21 1.43,1.43 0 0 0 -1.14,0.44 1.92,1.92 0 0 0 -0.39,1.3 v 2.6 h -2.19 z"
     id="path97"
     style="fill:url(#linear-gradient-24)" />
  <path
     class="cls-26"
     d="m 293,189.47 v 4.28 h -2.2 v -4.28 h -0.73 v -1.79 h 0.73 v -1.82 h 2.2 v 1.82 h 1.25 v 1.79 z"
     id="path99"
     style="fill:url(#linear-gradient-25)" />
  <path
     class="cls-27"
     d="m 304.66,186.79 h -2.86 v 1.49 h 2.61 v 2 h -2.61 v 3.5 h -2.38 v -8.92 h 5.24 z"
     id="path101"
     style="fill:url(#linear-gradient-26)" />
  <path
     class="cls-28"
     d="m 305.55,190.66 a 2.83,2.83 0 0 1 0.28,-1.26 3.06,3.06 0 0 1 0.77,-1 4.06,4.06 0 0 1 1.19,-0.68 4.75,4.75 0 0 1 3,0 3.64,3.64 0 0 1 1.19,0.67 2.91,2.91 0 0 1 0.78,1 3.08,3.08 0 0 1 -0.79,3.67 3.54,3.54 0 0 1 -1.19,0.67 4.92,4.92 0 0 1 -1.51,0.23 4.69,4.69 0 0 1 -1.48,-0.23 3.57,3.57 0 0 1 -1.17,-0.68 3,3 0 0 1 -0.77,-1 3.18,3.18 0 0 1 -0.3,-1.39 z m 2.32,0 a 1.32,1.32 0 0 0 0.11,0.57 1.52,1.52 0 0 0 0.31,0.44 1.37,1.37 0 0 0 0.44,0.3 1.5,1.5 0 0 0 0.56,0.1 1.49,1.49 0 0 0 0.55,-0.1 1.54,1.54 0 0 0 0.45,-0.3 1.71,1.71 0 0 0 0.3,-0.44 1.29,1.29 0 0 0 0.11,-0.55 1.24,1.24 0 0 0 -0.11,-0.54 1.55,1.55 0 0 0 -0.3,-0.44 1.37,1.37 0 0 0 -0.45,-0.3 1.46,1.46 0 0 0 -1.11,0 1.23,1.23 0 0 0 -0.44,0.3 1.48,1.48 0 0 0 -0.31,0.43 1.23,1.23 0 0 0 -0.11,0.55 z"
     id="path103"
     style="fill:url(#linear-gradient-27)" />
  <path
     class="cls-29"
     d="m 314.05,190.66 a 3,3 0 0 1 0.28,-1.26 3.23,3.23 0 0 1 0.78,-1 3.89,3.89 0 0 1 1.18,-0.68 4.78,4.78 0 0 1 3,0 3.59,3.59 0 0 1 1.18,0.67 3.06,3.06 0 0 1 0.79,1 3.18,3.18 0 0 1 0.28,1.32 3,3 0 0 1 -0.29,1.32 3.16,3.16 0 0 1 -0.78,1 3.49,3.49 0 0 1 -1.2,0.67 4.83,4.83 0 0 1 -1.51,0.23 4.73,4.73 0 0 1 -1.48,-0.23 3.57,3.57 0 0 1 -1.17,-0.68 3.17,3.17 0 0 1 -0.77,-1 3.34,3.34 0 0 1 -0.29,-1.36 z m 2.32,0 a 1.42,1.42 0 0 0 0.87,1.31 1.56,1.56 0 0 0 1.1,0 1.42,1.42 0 0 0 0.45,-0.3 1.32,1.32 0 0 0 0.3,-0.44 1.3,1.3 0 0 0 0.12,-0.55 1.25,1.25 0 0 0 -0.12,-0.54 1.23,1.23 0 0 0 -0.3,-0.44 1.27,1.27 0 0 0 -0.45,-0.3 1.43,1.43 0 0 0 -1.1,0 1.19,1.19 0 0 0 -0.45,0.3 1.28,1.28 0 0 0 -0.3,0.43 1.24,1.24 0 0 0 -0.12,0.55 z"
     id="path105"
     style="fill:url(#linear-gradient-28)" />
  <path
     class="cls-30"
     d="m 327.6,183.93 h 2.21 v 9.82 h -2.21 v -0.68 a 2.3,2.3 0 0 1 -1.9,0.87 3,3 0 0 1 -1.25,-0.25 3.18,3.18 0 0 1 -1.66,-1.72 3.54,3.54 0 0 1 -0.23,-1.27 3.41,3.41 0 0 1 0.22,-1.24 3,3 0 0 1 0.64,-1 2.8,2.8 0 0 1 1,-0.69 3.07,3.07 0 0 1 1.27,-0.26 2.57,2.57 0 0 1 1.92,0.79 z m -2.76,6.77 a 1.29,1.29 0 0 0 0.11,0.55 1.32,1.32 0 0 0 0.3,0.44 1.37,1.37 0 0 0 0.44,0.3 1.56,1.56 0 0 0 0.57,0.1 1.45,1.45 0 0 0 0.55,-0.1 1.54,1.54 0 0 0 0.45,-0.3 1.71,1.71 0 0 0 0.3,-0.44 1.18,1.18 0 0 0 0.12,-0.53 1.25,1.25 0 0 0 -0.12,-0.54 1.71,1.71 0 0 0 -0.3,-0.44 1.37,1.37 0 0 0 -0.45,-0.3 1.45,1.45 0 0 0 -0.55,-0.1 1.42,1.42 0 0 0 -0.55,0.1 1.19,1.19 0 0 0 -0.45,0.3 1.62,1.62 0 0 0 -0.31,0.43 1.32,1.32 0 0 0 -0.11,0.53 z"
     id="path107"
     style="fill:url(#linear-gradient-29)" />
  <path
     class="cls-31"
     d="m 331.17,185.35 a 1.07,1.07 0 0 1 0.1,-0.47 1.22,1.22 0 0 1 0.26,-0.38 1.31,1.31 0 0 1 0.4,-0.26 1.2,1.2 0 0 1 1,0 1.16,1.16 0 0 1 0.39,0.26 1.46,1.46 0 0 1 0.27,0.38 1.15,1.15 0 0 1 0,0.94 1.46,1.46 0 0 1 -0.27,0.38 1.16,1.16 0 0 1 -0.39,0.26 1.2,1.2 0 0 1 -1,0 1.31,1.31 0 0 1 -0.4,-0.26 1.22,1.22 0 0 1 -0.26,-0.38 1.07,1.07 0 0 1 -0.1,-0.47 z m 2.34,2.33 v 6.07 h -2.19 v -6.07 z"
     id="path109"
     style="fill:url(#linear-gradient-30)" />
  <path
     class="cls-32"
     d="m 337,191.08 c 0,0.92 0.44,1.38 1.33,1.38 a 1.19,1.19 0 0 0 1.08,-0.57 h 2.12 c -0.43,1.39 -1.5,2.08 -3.21,2.08 a 4.2,4.2 0 0 1 -1.45,-0.23 3.27,3.27 0 0 1 -1.12,-0.65 3.05,3.05 0 0 1 -0.72,-1 3.32,3.32 0 0 1 -0.25,-1.33 3.66,3.66 0 0 1 0.24,-1.36 2.87,2.87 0 0 1 0.69,-1 3,3 0 0 1 1.09,-0.65 4,4 0 0 1 1.43,-0.23 4,4 0 0 1 1.42,0.23 2.85,2.85 0 0 1 1.07,0.66 3,3 0 0 1 0.67,1.08 4.19,4.19 0 0 1 0.23,1.42 v 0.23 z m 2.57,-1.25 a 1.35,1.35 0 0 0 -0.45,-0.72 1.29,1.29 0 0 0 -0.83,-0.27 1.31,1.31 0 0 0 -0.83,0.26 1.15,1.15 0 0 0 -0.4,0.73 z"
     id="path111"
     style="fill:url(#linear-gradient-31)" />
  <path
     class="cls-33"
     d="m 347,189.24 a 2.67,2.67 0 0 0 -1.19,-0.31 0.91,0.91 0 0 0 -0.49,0.12 0.38,0.38 0 0 0 -0.19,0.32 0.39,0.39 0 0 0 0,0.17 0.27,0.27 0 0 0 0.13,0.13 1.16,1.16 0 0 0 0.3,0.1 l 0.53,0.12 a 2.51,2.51 0 0 1 1.36,0.64 1.58,1.58 0 0 1 0.45,1.16 2.15,2.15 0 0 1 -0.22,1 2.08,2.08 0 0 1 -0.61,0.71 2.69,2.69 0 0 1 -0.93,0.45 4.2,4.2 0 0 1 -1.2,0.16 5,5 0 0 1 -2.49,-0.69 l 0.8,-1.52 a 3.21,3.21 0 0 0 1.75,0.62 1,1 0 0 0 0.5,-0.13 0.42,0.42 0 0 0 0.19,-0.34 0.54,0.54 0 0 0 0,-0.19 0.29,0.29 0 0 0 -0.13,-0.14 0.93,0.93 0 0 0 -0.28,-0.12 c -0.13,0 -0.29,-0.07 -0.49,-0.11 a 3,3 0 0 1 -1.43,-0.6 1.46,1.46 0 0 1 -0.41,-1.09 2.11,2.11 0 0 1 0.2,-0.92 1.86,1.86 0 0 1 0.56,-0.69 2.51,2.51 0 0 1 0.88,-0.44 4,4 0 0 1 1.14,-0.15 5.28,5.28 0 0 1 2,0.39 z"
     id="path113"
     style="fill:url(#linear-gradient-32)" />
  <path
     class="cls-34"
     d="m 349,192.61 a 1.4,1.4 0 0 1 0.1,-0.54 1.67,1.67 0 0 1 0.31,-0.44 1.51,1.51 0 0 1 0.45,-0.29 1.32,1.32 0 0 1 0.55,-0.11 1.33,1.33 0 0 1 0.56,0.11 1.51,1.51 0 0 1 0.45,0.29 1.43,1.43 0 0 1 0.3,0.44 1.38,1.38 0 0 1 0,1.08 1.23,1.23 0 0 1 -0.3,0.44 1.37,1.37 0 0 1 -0.45,0.3 1.46,1.46 0 0 1 -1.11,0 1.37,1.37 0 0 1 -0.45,-0.3 1.27,1.27 0 0 1 -0.41,-1 z"
     id="path115"
     style="fill:url(#linear-gradient-33)" />
  <text
     class="cls-35"
     transform="scale(0.9486833,1.0540926)"
     id="text117"
     x="355.17648"
     y="126.09898"
     style="stroke-width:0.948683">TM</text>
</svg>
